<svg width="30" height="30" viewBox="0 0 30 30" fill="none" xmlns="http://www.w3.org/2000/svg">
<path d="M18.25 12.5H20.125C20.4375 12.5 20.75 12.1875 20.75 11.875V5.3125C20.75 5 20.4375 4.6875 20.125 4.6875H18.25C17.9375 4.6875 17.625 5 17.625 5.3125V11.875C17.625 12.1875 17.9375 12.5 18.25 12.5ZM22.9375 12.5H24.8125C25.125 12.5 25.4375 12.1875 25.4375 11.875V0.625C25.4375 0.3125 25.125 0 24.8125 0H22.9375C22.625 0 22.3125 0.3125 22.3125 0.625V11.875C22.3125 12.1875 22.625 12.5 22.9375 12.5ZM8.875 12.5H10.75C11.0625 12.5 11.375 12.1875 11.375 11.875V8.4375C11.375 8.125 11.0625 7.8125 10.75 7.8125H8.875C8.5625 7.8125 8.25 8.125 8.25 8.4375V11.875C8.25 12.1875 8.5625 12.5 8.875 12.5ZM13.5625 12.5H15.4375C15.75 12.5 16.0625 12.1875 16.0625 11.875V2.1875C16.0625 1.875 15.75 1.5625 15.4375 1.5625H13.5625C13.25 1.5625 12.9375 1.875 12.9375 2.1875V11.875C12.9375 12.1875 13.25 12.5 13.5625 12.5ZM26.2188 15.625H5.125V0.78125C5.125 0.349609 4.77539 0 4.34375 0H2.78125C2.34961 0 2 0.349609 2 0.78125V17.1875C2 18.0503 2.69971 18.75 3.5625 18.75H26.2188C26.6504 18.75 27 18.4004 27 17.9688V16.4062C27 15.9746 26.6504 15.625 26.2188 15.625Z" fill="#54BD95"/>
</svg>
