<svg width="72" height="73" viewBox="0 0 72 73" fill="none" xmlns="http://www.w3.org/2000/svg">
<path fill-rule="evenodd" clip-rule="evenodd" d="M18.1818 20.659C17.9803 20.4376 17.7326 20.2635 17.4565 20.149C17.1804 20.0344 16.8826 19.9823 16.5841 19.9962C16.2857 20.0101 15.9939 20.0898 15.7296 20.2296C15.4652 20.3694 15.2348 20.5658 15.0546 20.805C11.416 25.8629 9.68878 32.0551 10.1818 38.2741C10.6748 44.4932 13.3558 50.3333 17.7455 54.75C22.1459 59.1075 27.9404 61.7616 34.1032 62.2426C40.266 62.7235 46.3996 61.0003 51.4182 57.378C52.4364 56.648 52.5091 55.188 51.6364 54.239L18.1818 20.659Z" fill="black"/>
<path fill-rule="evenodd" clip-rule="evenodd" d="M55.2727 51.611C55.4182 51.7456 55.5896 51.849 55.7763 51.9149C55.963 51.9807 56.1612 52.0077 56.3586 51.994C56.556 51.9803 56.7486 51.9264 56.9246 51.8354C57.1005 51.7445 57.2561 51.6184 57.3818 51.465C59.4909 48.472 60.8727 45.187 61.6 41.756C61.8909 40.442 60.3636 39.712 59.4182 40.661L52.8727 47.231C52.6274 47.5001 52.4914 47.8517 52.4914 48.2165C52.4914 48.5813 52.6274 48.9329 52.8727 49.202L55.2727 51.611ZM47.7818 44.092C48.3636 44.676 49.2364 44.676 49.8182 44.092L61.3091 32.558C61.4764 32.4146 61.6092 32.235 61.6974 32.0327C61.7855 31.8304 61.8269 31.6107 61.8182 31.39C61.4545 29.638 60.9455 27.886 60.2182 26.28C59.8545 25.331 58.6909 25.112 58.0364 25.842L44.8 38.982C44.657 39.1184 44.5431 39.2826 44.4652 39.4645C44.3874 39.6465 44.3473 39.8425 44.3473 40.0405C44.3473 40.2385 44.3874 40.4345 44.4652 40.6165C44.5431 40.7984 44.657 40.9626 44.8 41.099L47.8545 44.165L47.7818 44.092ZM39.6364 35.916C40.2182 36.427 41.0909 36.427 41.6727 35.916L56.0727 21.462C56.3084 21.2064 56.4453 20.8746 56.4586 20.5265C56.472 20.1784 56.3609 19.8371 56.1455 19.564C55.1327 18.3464 54.013 17.2226 52.8 16.206C52.5195 15.9993 52.1745 15.9004 51.8276 15.9271C51.4806 15.9539 51.1548 16.1047 50.9091 16.352L36.5818 30.66C36.4388 30.7964 36.3249 30.9606 36.2471 31.1425C36.1692 31.3245 36.1291 31.5205 36.1291 31.7185C36.1291 31.9165 36.1692 32.1125 36.2471 32.2945C36.3249 32.4764 36.4388 32.6406 36.5818 32.777L39.6364 35.843V35.916ZM31.4182 27.667C32 28.251 32.8727 28.251 33.4545 27.667L46.6182 14.527C47.3455 13.797 47.1273 12.556 46.2545 12.191C44.5818 11.461 42.8364 10.95 41.1636 10.658C40.9323 10.6073 40.6922 10.614 40.464 10.6777C40.2359 10.7413 40.0267 10.8598 39.8545 11.023L28.3636 22.63C28.0971 22.9029 27.9478 23.2698 27.9478 23.652C27.9478 24.0342 28.0971 24.4011 28.3636 24.674L31.4182 27.74V27.667ZM23.2727 19.491C23.8545 20.002 24.7273 20.002 25.3091 19.491L31.8545 12.921C32.7273 11.972 32 10.439 30.6909 10.731C27.2727 11.461 24 12.921 21.0909 14.965C20.3636 15.476 20.3636 16.498 20.9455 17.155L23.2727 19.491Z" fill="black"/>
</svg>
